<svg width="64" height="64" viewBox="0 0 64 64" fill="none" xmlns="http://www.w3.org/2000/svg">
<mask id="mask0_26_25" style="mask-type:alpha" maskUnits="userSpaceOnUse" x="0" y="0" width="64" height="64">
<rect width="64" height="64" fill="#D9D9D9"/>
</mask>
<g mask="url(#mask0_26_25)">
<path d="M25.1333 38.8667V25.2H38.8V38.8667H25.1333ZM24 56V50.6667H17.3333C16.2667 50.6667 15.3333 50.2667 14.5333 49.4667C13.7333 48.6667 13.3333 47.7333 13.3333 46.6667V40H8V36H13.3333V27.7333H8V23.7333H13.3333V17.0667C13.3333 16 13.7333 15.0667 14.5333 14.2667C15.3333 13.4667 16.2667 13.0667 17.3333 13.0667H24V8H28V13.0667H36.2667V8H40.2667V13.0667H46.9333C48 13.0667 48.9333 13.4667 49.7333 14.2667C50.5333 15.0667 50.9333 16 50.9333 17.0667V23.7333H56V27.7333H50.9333V36H56V40H50.9333V46.6667C50.9333 47.7333 50.5333 48.6667 49.7333 49.4667C48.9333 50.2667 48 50.6667 46.9333 50.6667H40.2667V56H36.2667V50.6667H28V56H24ZM46.9333 46.6667V17.0667H17.3333V46.6667H46.9333Z" fill="#0466C8"/>
</g>
</svg>
